<svg xmlns="http://www.w3.org/2000/svg" width="35" height="35" viewBox="0 0 35 35">
    <g fill="#FFF" fill-rule="nonzero">
        <path d="M17.49 0C7.847 0 0 7.846 0 17.49c0 9.645 7.846 17.491 17.49 17.491 4.543 0 8.848-1.733 12.121-4.88a.712.712 0 1 0-.986-1.027 15.99 15.99 0 0 1-11.134 4.484c-8.86 0-16.067-7.208-16.067-16.067 0-8.86 7.207-16.067 16.067-16.067 8.859 0 16.067 7.207 16.067 16.067 0 1.998-.363 3.947-1.077 5.794a.712.712 0 0 0 1.328.513 17.417 17.417 0 0 0 1.172-6.307C34.981 7.846 27.135 0 17.491 0z"/>
        <path d="M19.887 18.999a.712.712 0 0 0-.996 1.017l5.604 5.486a.71.71 0 0 0 1.007-.01.712.712 0 0 0-.01-1.008L19.886 19zM14.852 15.858a.71.71 0 0 0 1.006 0 .712.712 0 0 0 0-1.006l-5.367-5.367a.712.712 0 0 0-1.006 1.006l5.367 5.367zM25.497 9.485a.712.712 0 0 0-1.007 0L9.485 24.49a.712.712 0 1 0 1.006 1.007L25.497 10.49a.712.712 0 0 0 0-1.006z"/>
    </g>
</svg>
